<svg width="207" height="39" viewBox="0 0 207 39" fill="none" xmlns="http://www.w3.org/2000/svg">
<path d="M52.4887 26.6189C53.5277 22.5929 52.8783 18.2205 50.7571 14.6707L42.0989 0.384766L28.0728 8.86973L27.5533 8.13379C24.5662 3.89131 19.6744 1.55361 14.8258 1.55361C12.0552 1.55361 9.28465 2.28955 6.90366 3.84802C0.0204527 8.30695 -2.0575 17.5711 2.22827 24.4976L11.1894 39L24.9991 30.4285L25.5186 31.1644C29.9343 37.7013 38.7223 39.7359 45.5622 35.7965C49.0254 33.8484 51.493 30.5583 52.4887 26.6189ZM43.7007 31.1644C41.9691 32.3332 39.9777 32.896 38.0296 32.896C34.9127 32.896 31.8391 31.4241 29.8477 28.6535L29.2416 27.831L38.6357 22.0301C39.8045 21.2941 40.1509 19.779 39.4582 18.6101C39.1119 18.0473 38.5491 17.6577 37.8997 17.4846C37.2504 17.3114 36.601 17.4413 36.0382 17.7876L12.8345 32.1601L6.60063 22.0734C3.70015 17.3547 4.869 11.294 9.32794 8.22037C13.8735 5.10344 19.9774 6.14242 23.2242 10.6014L23.8303 11.4239L14.5228 17.0517C13.354 17.7443 12.9643 19.3028 13.657 20.4716C14.0033 21.0344 14.5661 21.424 15.1722 21.5972C15.8215 21.7703 16.4709 21.6405 17.077 21.2941L40.4106 7.18139L46.5146 17.3114C49.415 22.0734 48.1596 28.1341 43.7007 31.1644Z" fill="white"/>
<path d="M109.243 16.7049C108.377 15.8824 107.294 15.233 105.996 14.8001C104.74 14.3672 103.355 14.1508 101.797 14.1508C100.281 14.1508 98.896 14.3672 97.6406 14.8001C96.3852 15.233 95.2596 15.8824 94.3072 16.7049C93.3548 17.5274 92.6189 18.5231 92.0994 19.6487C91.5799 20.7742 91.3202 22.0729 91.3202 23.4149C91.3202 24.8002 91.5799 26.099 92.1427 27.2678C92.7055 28.3934 93.4847 29.3891 94.4804 30.2116C95.4761 30.9908 96.6882 31.5969 98.0735 32.0298C99.4155 32.4194 100.974 32.6359 102.619 32.6359C103.312 32.6359 103.961 32.5926 104.567 32.5493C105.173 32.506 105.736 32.4194 106.299 32.3328C106.862 32.2462 107.468 32.1164 108.03 31.9432C108.593 31.8133 109.243 31.5969 109.892 31.4237L110.585 31.2073V26.9648L109.069 27.9172C108.81 28.0903 108.463 28.2202 108.03 28.3934C107.597 28.5665 107.078 28.6964 106.515 28.8696C105.952 28.9994 105.39 29.1293 104.784 29.1726C104.178 29.2592 103.571 29.3025 103.009 29.3025C101.623 29.3025 100.411 29.1726 99.3722 28.8696C98.3766 28.6098 97.554 28.2202 96.9047 27.744C96.2553 27.2678 95.7791 26.705 95.4328 26.0557C95.2163 25.6661 95.0865 25.2764 94.9566 24.8003H111.883V23.5448C111.883 22.1162 111.667 20.8175 111.191 19.692C110.801 18.5231 110.108 17.5274 109.243 16.7049ZM101.753 17.4408C102.965 17.4408 104.004 17.5707 104.87 17.8738C105.693 18.1768 106.385 18.5664 106.905 19.0426C107.424 19.5188 107.814 20.0383 108.074 20.6444C108.204 20.9474 108.29 21.2937 108.377 21.5967H95.0865C95.1731 21.2937 95.3029 20.9907 95.4761 20.6876C95.7791 20.0816 96.212 19.5188 96.7748 19.0426C97.3376 18.5664 98.0302 18.1768 98.8528 17.8738C99.632 17.614 100.628 17.4408 101.753 17.4408Z" fill="white"/>
<path d="M102.619 32.9393C100.931 32.9393 99.3721 32.7228 97.9868 32.3332C96.5582 31.9003 95.346 31.2942 94.3071 30.4717C93.2681 29.6492 92.4456 28.6102 91.8828 27.4414C91.32 26.2725 91.017 24.9305 91.017 23.5019C91.017 22.1166 91.2767 20.8179 91.8395 19.6058C92.359 18.4369 93.1382 17.3979 94.0906 16.5754C95.043 15.7529 96.1686 15.1035 97.5106 14.6273C98.8093 14.1944 100.238 13.9347 101.753 13.9347C103.355 13.9347 104.783 14.1511 106.039 14.5841C107.338 15.017 108.463 15.6663 109.372 16.5321C110.281 17.3979 110.974 18.4369 111.45 19.6058C111.926 20.7746 112.143 22.1166 112.143 23.5452V25.147H95.2595C95.346 25.45 95.4759 25.753 95.6058 26.0128C95.9088 26.6188 96.385 27.1816 96.9911 27.6145C97.6404 28.0907 98.4197 28.4371 99.3721 28.6968C100.368 28.9565 101.58 29.0864 102.922 29.0864C103.485 29.0864 104.091 29.0431 104.654 28.9565C105.26 28.87 105.822 28.7834 106.385 28.6535C106.905 28.5236 107.424 28.3938 107.857 28.2206C108.29 28.0474 108.593 27.9176 108.853 27.7444L110.757 26.5323V31.3808L109.892 31.6406C109.242 31.857 108.593 32.0302 108.03 32.16C107.424 32.3332 106.861 32.4198 106.255 32.5497C105.692 32.6362 105.086 32.7228 104.48 32.7661C103.961 32.896 103.312 32.9393 102.619 32.9393ZM101.796 14.4109C100.324 14.4109 98.9392 14.6273 97.727 15.0602C96.4716 15.4932 95.3893 16.0992 94.4802 16.9217C93.5711 17.701 92.8352 18.6967 92.359 19.8222C91.8395 20.9478 91.5797 22.1599 91.5797 23.5019C91.5797 24.8872 91.8395 26.1427 92.359 27.2249C92.8785 28.3505 93.6577 29.3029 94.6101 30.0821C95.5625 30.8613 96.7313 31.4674 98.1166 31.857C99.4586 32.2466 100.974 32.4631 102.576 32.4631C103.268 32.4631 103.918 32.4198 104.48 32.3765C105.043 32.3332 105.649 32.2466 106.212 32.16C106.775 32.0735 107.338 31.9436 107.944 31.8137C108.506 31.6839 109.156 31.4674 109.805 31.2942L110.325 31.1211V27.5279L109.156 28.2639C108.896 28.4371 108.55 28.6102 108.073 28.7834C107.597 28.9565 107.078 29.1297 106.515 29.2596C105.952 29.3894 105.346 29.5193 104.74 29.6059C104.134 29.6925 103.528 29.7358 102.922 29.7358C101.537 29.7358 100.281 29.6059 99.2422 29.3029C98.2465 29.0431 97.3807 28.6535 96.688 28.134C96.0387 27.6578 95.5192 27.0518 95.1729 26.3591C94.9564 25.9695 94.8265 25.5366 94.6967 25.0604L94.6101 24.7574H111.623V23.5452C111.623 22.1599 111.407 20.9045 110.974 19.7789C110.541 18.6534 109.848 17.6577 109.026 16.8785C108.16 16.0992 107.121 15.4499 105.866 15.0602C104.697 14.6273 103.312 14.4109 101.796 14.4109ZM108.68 21.8569H94.74L94.8265 21.5538C94.9131 21.2508 95.043 20.9045 95.2162 20.6014C95.5625 19.9521 95.9954 19.3893 96.5582 18.8698C97.1209 18.3503 97.8569 17.9607 98.7227 17.6577C99.5885 17.3547 100.584 17.1815 101.753 17.1815C103.008 17.1815 104.047 17.3547 104.913 17.6577C105.779 17.9607 106.472 18.3503 107.035 18.8698C107.554 19.346 107.987 19.9521 108.247 20.5582C108.377 20.8612 108.506 21.2075 108.55 21.5538L108.68 21.8569ZM95.3893 21.3807H107.987C107.944 21.1642 107.857 20.9478 107.77 20.7746C107.511 20.2118 107.164 19.6923 106.688 19.2594C106.212 18.8265 105.563 18.4369 104.74 18.1772C103.918 17.8741 102.922 17.7443 101.71 17.7443C100.584 17.7443 99.6318 17.8741 98.8526 18.1772C98.0733 18.4369 97.3807 18.8265 96.8612 19.3027C96.3417 19.7789 95.9088 20.2984 95.6058 20.8612C95.5625 21.0344 95.4759 21.2075 95.3893 21.3807Z" fill="white"/>
<path d="M156.949 15.4501C156.127 14.9739 155.131 14.5843 154.006 14.3679C152.923 14.1514 151.754 14.0648 150.542 14.0648C149.114 14.0648 147.728 14.1947 146.473 14.4111C145.218 14.6276 144.049 14.8873 142.923 15.1904L142.187 15.4068V19.3463L143.529 18.8268C144.049 18.6103 144.568 18.4372 145.044 18.264C145.521 18.0908 146.04 17.961 146.56 17.8311C147.079 17.7012 147.642 17.6147 148.248 17.5281C149.287 17.3982 150.629 17.3982 151.928 17.4848C152.447 17.5281 152.967 17.6147 153.443 17.7012C153.919 17.7878 154.352 17.961 154.742 18.0908C155.088 18.264 155.391 18.4372 155.651 18.6536C155.867 18.8701 156.04 19.0865 156.17 19.3463C156.3 19.606 156.343 19.8658 156.343 20.2121V20.5151C155.174 20.6017 154.049 20.6883 152.967 20.7749C151.581 20.9047 150.283 21.0779 149.114 21.2944C147.902 21.5108 146.819 21.7706 145.824 22.0303C144.785 22.3333 143.919 22.7229 143.183 23.1559C142.404 23.632 141.754 24.2381 141.321 24.8875C140.845 25.5801 140.629 26.4026 140.629 27.355C140.629 28.2641 140.845 29.0434 141.235 29.736C141.624 30.4287 142.187 30.9915 142.88 31.4677C143.573 31.9006 144.352 32.2036 145.304 32.42C146.213 32.6365 147.209 32.7231 148.335 32.7231C149.157 32.7231 150.023 32.6798 150.889 32.5499C151.754 32.4633 152.62 32.2902 153.443 32.117C154.265 31.9438 155.045 31.6841 155.824 31.4244C155.997 31.3378 156.213 31.2945 156.387 31.2079V32.42H159.85V20.5151C159.85 19.3463 159.59 18.3073 159.071 17.4848C158.551 16.619 157.815 15.9696 156.949 15.4501ZM144.135 27.2252C144.135 27.0087 144.179 26.6624 144.612 26.2728C144.915 26.013 145.521 25.5801 146.776 25.1905C147.858 24.8442 149.287 24.5412 151.019 24.2814C152.534 24.065 154.352 23.8918 156.387 23.7619V27.5715C156.257 27.6581 156.127 27.7447 155.954 27.7879C155.607 27.9611 155.218 28.1343 154.785 28.3074C154.352 28.4806 153.876 28.6105 153.356 28.7403C152.837 28.8702 152.317 29.0001 151.798 29.0867C151.278 29.1732 150.759 29.2598 150.239 29.3031C148.854 29.433 147.599 29.3897 146.56 29.2165C145.954 29.0867 145.477 28.9135 145.044 28.6971C144.698 28.5239 144.438 28.2641 144.265 28.0044C144.179 27.8312 144.135 27.5282 144.135 27.2252Z" fill="white"/>
<path d="M148.335 32.9393C147.209 32.9393 146.17 32.8527 145.261 32.6362C144.309 32.4198 143.443 32.0735 142.75 31.6405C142.014 31.1643 141.408 30.5583 141.019 29.8223C140.586 29.0864 140.369 28.2206 140.369 27.3115C140.369 26.3591 140.629 25.4933 141.105 24.714C141.581 24.0214 142.231 23.4153 143.053 22.8958C143.833 22.4196 144.742 22.03 145.781 21.727C146.776 21.424 147.902 21.1642 149.114 20.9478C150.326 20.7313 151.625 20.5581 153.01 20.4283C154.006 20.3417 155.088 20.2551 156.17 20.1685V20.1252C156.17 19.8222 156.127 19.5625 155.997 19.346C155.867 19.1296 155.737 18.9131 155.521 18.7399C155.305 18.5235 155.001 18.3503 154.655 18.2205C154.266 18.0473 153.876 17.9174 153.4 17.8308C152.924 17.7443 152.447 17.6577 151.885 17.6144C150.672 17.5278 149.33 17.5278 148.248 17.6577C147.642 17.7443 147.079 17.8308 146.603 17.9607C146.084 18.0906 145.564 18.2205 145.088 18.3936C144.568 18.5668 144.092 18.7399 143.573 18.9564L141.884 19.6058V15.1901L142.794 14.9304C143.919 14.6273 145.088 14.3676 146.343 14.1511C147.642 13.9347 149.027 13.8048 150.456 13.8048C151.711 13.8048 152.88 13.8914 153.963 14.1078C155.088 14.3243 156.127 14.7139 156.993 15.1901C157.902 15.7096 158.638 16.4455 159.201 17.3113C159.763 18.1772 160.023 19.2594 160.023 20.4716V32.5929H156.084V31.5107C155.997 31.554 155.911 31.554 155.824 31.5973C155.088 31.857 154.266 32.1167 153.443 32.2899C152.621 32.5064 151.755 32.6362 150.889 32.7661C150.066 32.896 149.201 32.9393 148.335 32.9393ZM150.24 17.0949C150.802 17.0949 151.408 17.1382 151.971 17.1815C152.534 17.2248 153.053 17.3113 153.53 17.3979C154.006 17.4845 154.439 17.6577 154.872 17.8308C155.261 18.004 155.564 18.1772 155.867 18.4369C156.127 18.6534 156.3 18.9131 156.473 19.1728C156.603 19.4326 156.69 19.7789 156.69 20.1685V20.688H156.473C155.305 20.7746 154.179 20.8612 153.097 20.9478C151.755 21.0776 150.456 21.2508 149.244 21.424C148.032 21.6404 146.949 21.8569 145.997 22.1599C145.001 22.4629 144.136 22.8526 143.4 23.2855C142.62 23.7617 142.058 24.3244 141.625 24.9305C141.192 25.5799 140.975 26.3591 140.975 27.2249C140.975 28.0907 141.148 28.8267 141.538 29.5193C141.928 30.1687 142.447 30.7314 143.097 31.1643C143.746 31.5973 144.525 31.9003 145.434 32.1167C146.993 32.4631 148.941 32.5064 150.932 32.2466C151.798 32.16 152.621 31.9869 153.443 31.8137C154.266 31.6405 155.045 31.3808 155.781 31.1211C155.954 31.0345 156.17 30.9912 156.344 30.9046L156.69 30.7747V32.1167H159.634V20.5149C159.634 19.3893 159.374 18.3936 158.898 17.6144C158.421 16.8352 157.729 16.1858 156.863 15.6663C156.04 15.1901 155.088 14.8438 154.006 14.6273C152.967 14.4109 151.798 14.3243 150.586 14.3243C149.157 14.3243 147.815 14.4542 146.56 14.6706C145.304 14.8871 144.136 15.1468 143.053 15.4499L142.491 15.5797V18.9564L143.529 18.5668C144.049 18.3503 144.568 18.1772 145.045 18.004C145.521 17.8308 146.04 17.701 146.603 17.5711C147.123 17.4412 147.685 17.3546 148.335 17.2681C148.854 17.1382 149.547 17.0949 150.24 17.0949ZM148.724 29.6492C147.945 29.6492 147.209 29.6059 146.56 29.476C145.954 29.3461 145.391 29.173 145.001 28.9565C144.612 28.7401 144.352 28.4803 144.136 28.2206C143.962 27.9608 143.876 27.6145 143.876 27.2682C143.876 26.8353 144.049 26.489 144.439 26.1426C144.742 25.8396 145.391 25.4067 146.69 25.0171C147.772 24.6708 149.244 24.3677 150.975 24.108C152.491 23.8915 154.309 23.7184 156.387 23.5885H156.647V27.7877L156.517 27.8743C156.387 27.9608 156.214 28.0474 156.084 28.134C155.737 28.3072 155.305 28.4803 154.872 28.6535C154.439 28.8267 153.963 28.9565 153.443 29.0864C152.924 29.2163 152.404 29.3461 151.885 29.4327C151.365 29.5193 150.846 29.6059 150.326 29.6492C149.763 29.6059 149.244 29.6492 148.724 29.6492ZM156.127 24.0214C154.179 24.1513 152.447 24.3244 151.019 24.5409C149.287 24.8006 147.859 25.1037 146.82 25.45C145.607 25.8396 145.045 26.2292 144.785 26.489C144.439 26.8353 144.395 27.095 144.395 27.2682C144.395 27.5279 144.439 27.7444 144.568 27.9608C144.698 28.1773 144.958 28.3937 145.261 28.5669C145.651 28.7834 146.127 28.9132 146.69 29.0431C147.729 29.2596 148.984 29.2596 150.283 29.1297C150.802 29.0864 151.322 28.9998 151.798 28.9132C152.317 28.8267 152.837 28.6968 153.313 28.5669C153.789 28.437 154.266 28.2639 154.698 28.134C155.131 27.9608 155.521 27.831 155.867 27.6578C155.954 27.6145 156.084 27.5712 156.17 27.4846V24.0214H156.127Z" fill="white"/>
<path d="M205.954 31.2943C205.867 30.2553 205.651 29.3029 205.261 28.4804C204.915 27.6579 204.439 26.9219 203.919 26.2726C203.4 25.6232 202.794 25.0604 202.144 24.5842C201.495 24.108 200.845 23.7184 200.153 23.4154C199.893 23.2855 199.633 23.1556 199.33 23.069C199.417 23.0258 199.547 22.9825 199.633 22.8959C200.239 22.5496 200.845 22.1599 201.408 21.727C202.014 21.2508 202.534 20.7314 203.053 20.082C203.529 19.4759 203.962 18.7833 204.265 18.004C204.612 17.2248 204.828 16.359 204.915 15.4066L205.001 14.3243H201.495L201.408 15.2334C201.322 15.8828 201.192 16.4889 200.889 17.0516C200.629 17.6144 200.239 18.1772 199.806 18.6101C199.374 19.0863 198.854 19.5192 198.291 19.9088C197.685 20.2984 197.036 20.6448 196.387 20.9045C195.694 21.1643 194.958 21.3807 194.222 21.5106C193.443 21.6405 192.664 21.727 191.928 21.727H190.845V14.3243H187.382V32.3765H190.845V25.0171H192.317C193.096 25.0171 193.876 25.0604 194.698 25.1903C195.477 25.3202 196.257 25.4933 196.993 25.7098C197.729 25.9262 198.421 26.2293 199.071 26.6189C199.677 26.9652 200.239 27.3981 200.759 27.8743C201.235 28.3505 201.625 28.87 201.928 29.4761C202.231 30.0821 202.404 30.7315 202.491 31.4674L202.577 32.3765H206.084L205.954 31.2943Z" fill="white"/>
<path d="M206.3 32.6363H202.318L202.231 31.5107C202.188 30.8181 202.015 30.1687 201.712 29.606C201.409 29.0432 201.062 28.5237 200.586 28.0475C200.11 27.5713 199.59 27.1817 198.984 26.8354C198.335 26.489 197.686 26.186 196.95 25.9695C196.214 25.7531 195.478 25.5799 194.698 25.4501C193.919 25.3202 193.14 25.2769 192.361 25.2769H191.105V32.6363H187.166V14.1079H191.105V21.5106H191.971C192.707 21.5106 193.486 21.424 194.222 21.2942C194.958 21.1643 195.694 20.9478 196.344 20.6881C196.993 20.4283 197.642 20.1253 198.205 19.7357C198.768 19.3894 199.244 18.9565 199.677 18.4803C200.11 18.0041 200.456 17.5279 200.716 16.9651C200.976 16.4456 201.149 15.8395 201.192 15.2335L201.322 14.1079H205.305L205.175 15.4499C205.088 16.4456 204.872 17.3114 204.525 18.1339C204.179 18.9132 203.746 19.6491 203.27 20.2552C202.751 20.9045 202.188 21.4673 201.582 21.9435C201.062 22.3764 200.499 22.7227 199.937 23.0258C200.066 23.0691 200.153 23.1124 200.283 23.1989C200.976 23.502 201.668 23.9349 202.318 24.4111C203.01 24.8873 203.616 25.4933 204.136 26.1427C204.699 26.7921 205.132 27.5713 205.521 28.3938C205.911 29.2596 206.127 30.212 206.214 31.2943L206.3 32.6363ZM202.751 32.1168H205.738L205.651 31.2943C205.564 30.2986 205.348 29.3462 205.002 28.567C204.655 27.7877 204.222 27.0518 203.703 26.4024C203.183 25.7964 202.621 25.2336 201.971 24.7574C201.365 24.3245 200.673 23.9349 200.023 23.6318C199.763 23.502 199.504 23.4154 199.244 23.2855L198.724 23.0691L199.201 22.8093C199.287 22.766 199.417 22.7227 199.504 22.6362C200.11 22.3331 200.673 21.9435 201.235 21.5106C201.798 21.0777 202.361 20.5149 202.837 19.9089C203.313 19.3028 203.703 18.6101 204.049 17.8742C204.396 17.095 204.612 16.2724 204.655 15.32L204.742 14.4975H201.755L201.668 15.1902C201.582 15.8828 201.409 16.4889 201.149 17.095C200.846 17.701 200.499 18.2205 200.023 18.74C199.547 19.2595 199.028 19.6924 198.465 20.082C197.859 20.4716 197.209 20.818 196.517 21.0777C195.824 21.3374 195.045 21.5539 194.266 21.6838C193.486 21.8136 192.707 21.9002 191.928 21.9002H190.586V14.5841H187.642V32.1168H190.586V24.7574H192.317C193.097 24.7574 193.919 24.8007 194.742 24.9306C195.521 25.0604 196.344 25.2336 197.079 25.4501C197.815 25.7098 198.551 26.0128 199.201 26.3592C199.85 26.7055 200.413 27.1384 200.932 27.6579C201.409 28.1341 201.841 28.6969 202.144 29.3462C202.447 29.9523 202.621 30.6449 202.707 31.4242L202.751 32.1168Z" fill="white"/>
<path d="M179.59 21.6405H167.512V14.3243H164.092V32.3765H167.512V25.0604H179.59V32.3765H183.01V14.3243H179.59V21.6405Z" fill="white"/>
<path d="M183.27 32.6363H179.374V25.3202H167.772V32.6363H163.876V14.1079H167.772V21.424H179.374V14.1079H183.27V32.6363ZM179.85 32.1168H182.794V14.5841H179.85V21.9002H167.252V14.5841H164.309V32.1168H167.252V24.844H179.85V32.1168Z" fill="white"/>
<path d="M90.0209 14.7143C90.0209 10.3419 86.4711 6.79211 82.0987 6.79211H66.947V32.3336H70.367V23.2426H82.0987C86.4711 23.2426 90.0209 19.6927 90.0209 15.3204V14.7143ZM70.367 10.2554H82.0987C84.5663 10.2554 86.601 12.29 86.601 14.7576V15.3204C86.601 17.7879 84.5663 19.8226 82.0987 19.8226H70.367V10.2554Z" fill="white"/>
<path d="M70.6272 32.6362H66.7311V6.5752H82.1425C86.6448 6.5752 90.2812 10.2549 90.2812 14.7138V15.3199C90.2812 19.8221 86.6015 23.4585 82.1425 23.4585H70.6272V32.6362ZM67.2073 32.1167H70.151V22.9823H82.1425C86.385 22.9823 89.805 19.5624 89.805 15.3199V14.7571C89.805 10.5146 86.385 7.09468 82.1425 7.09468H67.2073V32.1167ZM82.0993 20.0386H70.1077V9.99516H82.0993C84.6967 9.99516 86.8179 12.1164 86.8179 14.7138V15.3199C86.8612 17.9173 84.74 20.0386 82.0993 20.0386ZM70.6272 19.5624H82.0993C84.4369 19.5624 86.3417 17.6576 86.3417 15.3199V14.7571C86.3417 12.4194 84.4369 10.5146 82.0993 10.5146H70.6272V19.5624Z" fill="white"/>
<path d="M130.585 15.9693H118.853V9.51896H136.516V6.099H115.476V31.3807V32.3764H130.628C135 32.3764 138.55 28.8266 138.55 24.4542V23.8914C138.507 19.5191 134.957 15.9693 130.585 15.9693ZM130.585 28.9564H118.853V19.3892H130.585C133.052 19.3892 135.087 21.4239 135.087 23.8914V24.4542C135.087 26.9651 133.096 28.9564 130.585 28.9564Z" fill="white"/>
<path d="M130.585 32.6364H115.173V31.3809V5.83948H136.732V9.73563H119.113V15.753H130.628C135.13 15.753 138.767 19.4327 138.767 23.8917V24.4544C138.767 28.9567 135.087 32.6364 130.585 32.6364ZM115.693 32.1169H130.585C134.827 32.1169 138.247 28.6969 138.247 24.4544V23.8917C138.247 19.6492 134.827 16.2292 130.585 16.2292H118.593V9.30273H136.212V6.35896H115.649L115.693 32.1169ZM130.585 29.2164H118.593V19.173H130.585C133.182 19.173 135.303 21.2942 135.303 23.8917V24.4544C135.347 27.0952 133.225 29.2164 130.585 29.2164ZM119.113 28.7402H130.585C132.922 28.7402 134.827 26.8354 134.827 24.4977V23.935C134.827 21.5973 132.922 19.6925 130.585 19.6925H119.113V28.7402Z" fill="white"/>
</svg>
