<svg width="72" height="72" viewBox="0 0 72 72" fill="none" xmlns="http://www.w3.org/2000/svg">
<path d="M36.1891 71.5834C55.96 71.5834 71.9875 55.5946 71.9875 35.8713C71.9875 16.148 55.96 0.15918 36.1891 0.15918C16.4181 0.15918 0.390625 16.148 0.390625 35.8713C0.390625 55.5946 16.4181 71.5834 36.1891 71.5834Z" fill="white"/>
<path d="M50.2963 10.7007C57.0829 13.0436 62.979 15.9845 67.6891 18.8949C69.4702 22.177 70.7507 25.7697 71.4302 29.5685C66.4756 22.5283 52.6768 16.6638 42.4678 11.9853C45.1205 11.4381 47.7338 11.0157 50.2963 10.7007ZM0.573975 32.2453C1.66676 30.544 3.39105 28.7919 5.87055 26.9876C24.2238 13.6256 43.3293 9.25779 59.4765 8.75118C53.2167 3.39625 45.0827 0.160645 36.1891 0.160645C17.6452 0.160645 2.39431 14.2252 0.573975 32.2453ZM71.8042 39.4974C70.7114 41.1987 68.9871 42.9508 66.5076 44.7551C48.1544 58.117 29.0489 62.4849 12.9016 62.9915C19.1615 68.3464 27.2955 71.582 36.1891 71.582C54.7314 71.5835 69.9824 57.5175 71.8042 39.4974ZM29.8608 59.7356C19.6576 55.06 5.89383 49.2028 0.947936 42.1742C1.62601 45.9744 2.9065 49.5657 4.689 52.8477C9.38317 55.748 15.2574 58.6803 22.0149 61.0188C24.5817 60.7052 27.2009 60.2828 29.8608 59.7356Z" fill="url(#paint0_linear_1_228)"/>
<path d="M11.0723 39.1875V28.3789H15.5496C15.6544 28.3789 15.7897 28.3833 15.9556 28.3905C16.1215 28.3978 16.2743 28.4137 16.4139 28.4399C17.0411 28.5357 17.5591 28.7433 17.968 29.0626C18.3769 29.3834 18.6795 29.787 18.8789 30.2747C19.0768 30.7624 19.1757 31.3039 19.1757 31.9005C19.1757 32.4913 19.0753 33.0298 18.8745 33.5175C18.6737 34.0053 18.3696 34.4103 17.9607 34.7296C17.5518 35.0504 17.0367 35.258 16.4139 35.3524C16.2728 35.3727 16.1186 35.3872 15.9512 35.3974C15.7824 35.4075 15.6486 35.4119 15.5482 35.4119H12.8853V39.1875H11.0723ZM12.8868 33.7222H15.4754C15.5758 33.7222 15.6879 33.7179 15.8144 33.7077C15.9396 33.6975 16.0545 33.6772 16.1608 33.6482C16.462 33.5727 16.6991 33.4406 16.8723 33.2505C17.0455 33.0603 17.1677 32.8455 17.2404 32.6045C17.3132 32.365 17.3496 32.1298 17.3496 31.899C17.3496 31.6697 17.3132 31.4331 17.2404 31.1892C17.1677 30.9468 17.0455 30.7305 16.8723 30.5403C16.6991 30.3502 16.462 30.2181 16.1608 30.1426C16.056 30.1121 15.9396 30.0932 15.8144 30.086C15.6893 30.0787 15.5758 30.0744 15.4754 30.0744H12.8868V33.7222Z" fill="#45474F"/>
<path d="M22.4875 39.1875L23.9178 36.2756L20.1782 28.3789H22.2241L24.8651 34.3682L27.5891 28.3789H29.5229L24.4213 39.1875H22.4875Z" fill="#45474F"/>
<path d="M31.0115 39.1875V28.3789H38.2579V30.0758H32.826V32.4027H35.4888C35.5892 32.4027 35.7231 32.4071 35.8919 32.4143C36.0592 32.4216 36.2135 32.4332 36.3546 32.4477C36.9614 32.5174 37.4692 32.7105 37.8781 33.0255C38.287 33.3405 38.5955 33.7382 38.8035 34.2187C39.0116 34.6991 39.1164 35.2246 39.1164 35.7951C39.1164 36.3656 39.0131 36.8925 38.8079 37.3744C38.6027 37.8578 38.2943 38.2556 37.8868 38.5676C37.4779 38.8797 36.9672 39.0713 36.3561 39.1425C36.2164 39.157 36.0621 39.1686 35.8977 39.1759C35.7333 39.1831 35.5965 39.1875 35.4917 39.1875H31.0115ZM32.8245 37.4906H35.4132C35.5136 37.4906 35.6256 37.4862 35.7522 37.4761C35.8773 37.4659 35.9937 37.4514 36.0985 37.4311C36.5496 37.3367 36.861 37.1262 37.0312 36.8011C37.2015 36.4759 37.2873 36.1406 37.2873 35.7951C37.2873 35.4453 37.2015 35.1085 37.0312 34.7848C36.861 34.4625 36.5496 34.2535 36.0985 34.1577C35.9937 34.133 35.8773 34.1156 35.7522 34.1083C35.6271 34.1011 35.5136 34.0967 35.4132 34.0967H32.8245V37.4906Z" fill="#45474F"/>
<path d="M47.8588 39.1875V31.5695L42.8329 39.1875H40.9966V28.3789H42.8329V35.9969L47.8588 28.3789H49.6952V39.1875H47.8588Z" fill="#45474F"/>
<path d="M52.176 39.1875V28.3789H53.9891V32.9282H59.1212V28.3789H60.927V39.1875H59.1212V34.6237H53.9891V39.1875H52.176Z" fill="#45474F"/>
<path d="M11.4797 44.4205L11.8696 43.625L10.8496 41.4694H11.4084L12.1286 43.1039L12.8722 41.4694H13.4004L12.0079 44.419H11.4797V44.4205Z" fill="#45474F"/>
<path d="M13.7046 44.4205V41.4708H16.1011V44.4205H15.6064V41.9339H14.1993V44.4205H13.7046Z" fill="#45474F"/>
<path d="M16.6758 44.4205V41.4708H17.8981C17.9272 41.4708 17.9635 41.4723 18.0087 41.4737C18.0538 41.4752 18.096 41.4795 18.1338 41.4868C18.3055 41.5129 18.4466 41.5695 18.5572 41.6566C18.6693 41.7437 18.7522 41.854 18.8061 41.9876C18.8599 42.1211 18.8875 42.2692 18.8875 42.4303C18.8875 42.5915 18.8599 42.7381 18.8061 42.8716C18.7508 43.0052 18.6678 43.1155 18.5572 43.2026C18.4452 43.2897 18.3055 43.3463 18.1352 43.3724C18.0974 43.3782 18.0552 43.3826 18.0087 43.384C17.9635 43.3869 17.9257 43.3884 17.8995 43.3884H17.172V44.419H16.6758V44.4205ZM17.1705 42.9282H17.8762C17.9039 42.9282 17.9344 42.9268 17.9694 42.9239C18.0028 42.921 18.0348 42.9152 18.0639 42.9079C18.1454 42.8876 18.2109 42.8513 18.2575 42.799C18.304 42.7468 18.3375 42.6887 18.3579 42.6234C18.3783 42.5581 18.3884 42.4942 18.3884 42.4303C18.3884 42.3679 18.3783 42.3026 18.3579 42.2373C18.3375 42.1719 18.304 42.1124 18.2575 42.0602C18.2109 42.0079 18.1454 41.9716 18.0639 41.9513C18.0348 41.9426 18.0043 41.9382 17.9694 41.9353C17.9344 41.9339 17.9039 41.9324 17.8762 41.9324H17.1705V42.9282Z" fill="#45474F"/>
<path d="M18.8877 44.4205L19.8204 41.4708H20.5451L21.4778 44.4205H20.9685L20.1231 41.7742H20.2337L19.3984 44.4205H18.8877ZM19.4072 43.7803V43.3187H20.9598V43.7803H19.4072Z" fill="#45474F"/>
<path d="M21.8457 44.4205V41.4708H23.0185C23.2179 41.4708 23.3823 41.51 23.5103 41.5913C23.6384 41.6726 23.733 41.7728 23.7955 41.8976C23.8581 42.0224 23.8887 42.1502 23.8887 42.2823C23.8887 42.4448 23.8494 42.5827 23.7722 42.696C23.6951 42.8092 23.5904 42.8861 23.4565 42.9253V42.8223C23.6427 42.8644 23.7839 42.9529 23.8799 43.0865C23.976 43.22 24.0254 43.3724 24.0254 43.5437C24.0254 43.7179 23.992 43.8718 23.925 44.0024C23.8581 44.1331 23.7577 44.2361 23.6267 44.3101C23.4943 44.3842 23.3314 44.4205 23.1364 44.4205H21.8457ZM22.3477 42.6481H23.0127C23.084 42.6481 23.148 42.635 23.2033 42.6074C23.2601 42.5798 23.3037 42.5392 23.3372 42.4869C23.3706 42.4332 23.3866 42.3679 23.3866 42.2895C23.3866 42.1865 23.3532 42.1023 23.2877 42.034C23.2222 41.9658 23.1306 41.931 23.0127 41.931H22.3477V42.6481ZM22.3477 43.9545H23.0767C23.1626 43.9545 23.2397 43.9371 23.3081 43.9023C23.3765 43.8674 23.4303 43.8181 23.4696 43.7542C23.5089 43.6903 23.5278 43.6148 23.5278 43.5277C23.5278 43.4479 23.5103 43.3768 23.4769 43.3144C23.4434 43.2519 23.3925 43.2011 23.327 43.1634C23.2615 43.1256 23.1829 43.1068 23.0913 43.1068H22.3477V43.9545Z" fill="#45474F"/>
<path d="M24.2322 44.4205V44.0068C24.2977 44.0111 24.353 44.0053 24.3981 43.9908C24.4432 43.9763 24.481 43.9487 24.5116 43.9066C24.5421 43.8645 24.5698 43.805 24.593 43.728C24.6163 43.6511 24.6382 43.5539 24.66 43.4363C24.692 43.2679 24.7182 43.0937 24.7386 42.9108C24.7604 42.7279 24.7778 42.5493 24.7924 42.3723C24.8069 42.1952 24.8186 42.0297 24.8273 41.8729C24.836 41.7176 24.8419 41.5826 24.8477 41.4694H26.8266V44.419H26.3319V41.9324H25.3046C25.2973 42.0239 25.29 42.1342 25.2813 42.2634C25.2726 42.3926 25.2609 42.5319 25.2464 42.6829C25.2318 42.8339 25.2144 42.9892 25.1925 43.1503C25.1707 43.3114 25.146 43.4697 25.1154 43.625C25.0878 43.7672 25.0558 43.895 25.0165 44.0068C24.9786 44.12 24.9277 44.2129 24.8637 44.2855C24.7997 44.358 24.7167 44.4074 24.6149 44.4321C24.5174 44.4567 24.3879 44.4524 24.2322 44.4205Z" fill="#45474F"/>
<path d="M27.4058 44.4205V41.4708H29.3163V41.9339H27.902V42.6611H29.0704V43.1242H27.902V43.9574H29.3163V44.4205H27.4058Z" fill="#45474F"/>
<path d="M29.8081 44.4205V41.4708H30.3028V42.7119H31.7041V41.4708H32.1974V44.4205H31.7041V43.175H30.3028V44.4205H29.8081Z" fill="#45474F"/>
<path d="M34.6435 44.4205V42.3418L33.2713 44.4205H32.7708V41.4708H33.2713V43.5495L34.6435 41.4708H35.144V44.4205H34.6435Z" fill="#45474F"/>
<path d="M35.7202 44.4205V41.4708H37.6308V41.9339H36.2164V42.6611H37.3849V43.1242H36.2164V43.9574H37.6308V44.4205H35.7202Z" fill="#45474F"/>
<path d="M38.7395 44.4205L39.6722 41.4708H40.3969L41.3296 44.4205H40.8203L39.9749 41.7742H40.0855L39.2502 44.4205H38.7395ZM39.259 43.7803V43.3187H40.8116V43.7803H39.259Z" fill="#45474F"/>
<path d="M41.6978 44.4205V41.4708H42.1925V42.8397L43.374 41.4708H43.9823L42.7105 42.9166L44.0681 44.4205H43.4395L42.1925 43.0444V44.4205H41.6978Z" fill="#45474F"/>
<path d="M45.0663 44.4205V41.9339H44.1089V41.4708H46.5171V41.9339H45.5596V44.4205H45.0663Z" fill="#45474F"/>
<path d="M48.7187 44.4205V42.3418L47.3465 44.4205H46.8459V41.4708H47.3465V43.5495L48.7187 41.4708H49.2192V44.4205H48.7187Z" fill="#45474F"/>
<path d="M49.7954 44.4205V41.4708H50.9682C51.1676 41.4708 51.332 41.51 51.46 41.5913C51.5881 41.6726 51.6827 41.7728 51.7452 41.8976C51.8078 42.0224 51.8384 42.1502 51.8384 42.2823C51.8384 42.4448 51.7991 42.5827 51.722 42.696C51.6448 42.8092 51.5401 42.8861 51.4062 42.9253V42.8223C51.5925 42.8644 51.7336 42.9529 51.8296 43.0865C51.9257 43.22 51.9752 43.3724 51.9752 43.5437C51.9752 43.7179 51.9417 43.8718 51.8747 44.0024C51.8078 44.1331 51.7074 44.2361 51.5765 44.3101C51.444 44.3842 51.2811 44.4205 51.0861 44.4205H49.7954ZM50.296 42.6481H50.9609C51.0322 42.6481 51.0963 42.635 51.1516 42.6074C51.2083 42.5798 51.252 42.5392 51.2854 42.4869C51.3189 42.4332 51.3349 42.3679 51.3349 42.2895C51.3349 42.1865 51.3014 42.1023 51.236 42.034C51.1705 41.9658 51.0788 41.931 50.9609 41.931H50.296V42.6481ZM50.296 43.9545H51.025C51.1108 43.9545 51.1879 43.9371 51.2563 43.9023C51.3247 43.8674 51.3786 43.8181 51.4178 43.7542C51.4571 43.6903 51.4761 43.6148 51.4761 43.5277C51.4761 43.4479 51.4586 43.3768 51.4251 43.3144C51.3917 43.2519 51.3407 43.2011 51.2752 43.1634C51.2098 43.1256 51.1312 43.1068 51.0395 43.1068H50.296V43.9545Z" fill="#45474F"/>
<path d="M52.1816 44.4205L53.1144 41.4708H53.839L54.7717 44.4205H54.2624L53.417 41.7742H53.5276L52.6924 44.4205H52.1816ZM52.7011 43.7803V43.3187H54.2537V43.7803H52.7011Z" fill="#45474F"/>
<path d="M55.1401 44.4205V41.4708H55.5854L56.6083 43.5597L57.6313 41.4708H58.0765V44.4205H57.6153V42.529L56.7073 44.4205H56.5108L55.6058 42.529V44.4205H55.1401Z" fill="#45474F"/>
<path d="M60.5253 44.4205V42.3418L59.1531 44.4205H58.6526V41.4708H59.1531V43.5495L60.5253 41.4708H61.0259V44.4205H60.5253Z" fill="#45474F"/>
<defs>
<linearGradient id="paint0_linear_1_228" x1="3.35275" y1="4.16396" x2="80.3573" y2="78.8824" gradientUnits="userSpaceOnUse">
<stop stop-color="#B5174D"/>
<stop offset="0.1796" stop-color="#CD2557"/>
<stop offset="0.3746" stop-color="#E0305F"/>
<stop offset="0.5092" stop-color="#E73462"/>
<stop offset="0.6191" stop-color="#E84069"/>
<stop offset="0.8176" stop-color="#EB607C"/>
<stop offset="1" stop-color="#EE8391"/>
</linearGradient>
</defs>
</svg>
