<svg width="186" height="35" viewBox="0 0 186 35" fill="none" xmlns="http://www.w3.org/2000/svg">
<path d="M47.3237 23.6526C48.2604 20.0228 47.6749 16.0807 45.7624 12.8801L37.9563 0L25.3103 7.65002L24.842 6.9865C22.1489 3.16149 17.7384 1.05383 13.3669 1.05383C10.869 1.05383 8.37101 1.71735 6.22432 3.12246C0.0184401 7.14262 -1.85503 15.4952 2.00901 21.7401L10.0884 34.8154L22.5392 27.0873L23.0075 27.7508C26.9887 33.6445 34.9119 35.4789 41.0787 31.9271C44.2012 30.1707 46.426 27.2044 47.3237 23.6526ZM39.4004 27.7508C37.8392 28.8047 36.0438 29.3121 34.2874 29.3121C31.4772 29.3121 28.706 27.985 26.9106 25.4871L26.3642 24.7455L34.8338 19.5154C35.8877 18.8518 36.1999 17.4858 35.5754 16.4319C35.2632 15.9245 34.7558 15.5733 34.1703 15.4171C33.5849 15.261 32.9994 15.3781 32.492 15.6903L11.5715 28.6485L5.95111 19.5544C3.33605 15.3 4.38988 9.83574 8.41004 7.06456C12.5083 4.25435 18.0116 5.19108 20.9389 9.21125L21.4853 9.95283L13.0937 15.0268C12.0399 15.6513 11.6886 17.0564 12.3131 18.1103C12.6254 18.6177 13.1328 18.9689 13.6792 19.125C14.2646 19.2812 14.8501 19.1641 15.3965 18.8518L36.4341 6.12782L41.9374 15.261C44.5525 19.5544 43.4206 25.0187 39.4004 27.7508Z" fill="#D9EE85"/>
<path d="M98.4927 14.7142C97.7121 13.9726 96.7363 13.3871 95.5654 12.9968C94.4335 12.6065 93.1845 12.4114 91.7794 12.4114C90.4133 12.4114 89.1644 12.6065 88.0325 12.9968C86.9006 13.3871 85.8858 13.9726 85.0271 14.7142C84.1684 15.4558 83.5049 16.3535 83.0365 17.3683C82.5682 18.3831 82.334 19.554 82.334 20.7639C82.334 22.0129 82.5682 23.1839 83.0756 24.2377C83.583 25.2525 84.2855 26.1502 85.1832 26.8918C86.0809 27.5943 87.1738 28.1408 88.4228 28.5311C89.6327 28.8823 91.0378 29.0775 92.521 29.0775C93.1455 29.0775 93.7309 29.0385 94.2774 28.9994C94.8238 28.9604 95.3312 28.8823 95.8386 28.8043C96.346 28.7262 96.8924 28.6091 97.3998 28.453C97.9072 28.3359 98.4927 28.1408 99.0782 27.9846L99.7027 27.7895V23.9645L98.3366 24.8231C98.1024 24.9793 97.7901 25.0964 97.3998 25.2525C97.0095 25.4086 96.5412 25.5257 96.0338 25.6818C95.5264 25.7989 95.019 25.916 94.4725 25.955C93.9261 26.0331 93.3797 26.0721 92.8723 26.0721C91.6233 26.0721 90.5304 25.955 89.5937 25.6818C88.696 25.4476 87.9544 25.0964 87.3689 24.667C86.7835 24.2377 86.3541 23.7303 86.0419 23.1448C85.8467 22.7935 85.7297 22.4423 85.6126 22.0129H100.874V20.881C100.874 19.593 100.678 18.4221 100.249 17.4073C99.8978 16.3535 99.2733 15.4558 98.4927 14.7142ZM91.7404 15.3777C92.8332 15.3777 93.77 15.4948 94.5506 15.768C95.2922 16.0412 95.9167 16.3925 96.385 16.8218C96.8534 17.2512 97.2047 17.7196 97.4389 18.266C97.556 18.5392 97.634 18.8514 97.7121 19.1247H85.7297C85.8077 18.8514 85.9248 18.5782 86.0809 18.305C86.3541 17.7586 86.7445 17.2512 87.2519 16.8218C87.7592 16.3925 88.3837 16.0412 89.1253 15.768C89.8279 15.5338 90.7256 15.3777 91.7404 15.3777Z" fill="#D9EE85"/>
<path d="M92.5208 29.351C90.9986 29.351 89.5935 29.1559 88.3445 28.8046C87.0565 28.4143 85.9636 27.8679 85.0269 27.1263C84.0901 26.3847 83.3486 25.448 82.8412 24.3941C82.3338 23.3403 82.0605 22.1304 82.0605 20.8423C82.0605 19.5934 82.2947 18.4224 82.8021 17.3296C83.2705 16.2757 83.9731 15.339 84.8317 14.5974C85.6904 13.8558 86.7052 13.2704 87.9152 12.841C89.0861 12.4507 90.3741 12.2166 91.7402 12.2166C93.1843 12.2166 94.4723 12.4117 95.6042 12.802C96.7751 13.1923 97.7899 13.7778 98.6096 14.5584C99.4292 15.339 100.054 16.2757 100.483 17.3296C100.912 18.3834 101.108 19.5934 101.108 20.8814V22.3255H85.8856C85.9636 22.5987 86.0807 22.8719 86.1978 23.1061C86.471 23.6526 86.9004 24.16 87.4468 24.5503C88.0322 24.9796 88.7348 25.2918 89.5935 25.526C90.4912 25.7602 91.584 25.8773 92.794 25.8773C93.3014 25.8773 93.8478 25.8383 94.3552 25.7602C94.9017 25.6822 95.4091 25.6041 95.9165 25.487C96.3848 25.3699 96.8532 25.2528 97.2435 25.0967C97.6338 24.9406 97.907 24.8235 98.1412 24.6674L99.8586 23.5745V27.9459L99.0779 28.1801C98.4925 28.3753 97.907 28.5314 97.3996 28.6485C96.8532 28.8046 96.3458 28.8827 95.7994 28.9998C95.292 29.0778 94.7455 29.1559 94.1991 29.1949C93.7307 29.312 93.1453 29.351 92.5208 29.351ZM91.7792 12.6459C90.4522 12.6459 89.2032 12.841 88.1103 13.2314C86.9784 13.6217 86.0026 14.1681 85.183 14.9097C84.3634 15.6122 83.6998 16.5099 83.2705 17.5247C82.8021 18.5395 82.5679 19.6324 82.5679 20.8423C82.5679 22.0913 82.8021 23.2232 83.2705 24.199C83.7389 25.2138 84.4414 26.0725 85.3001 26.775C86.1588 27.4776 87.2126 28.024 88.4616 28.3753C89.6715 28.7265 91.0376 28.9217 92.4818 28.9217C93.1062 28.9217 93.6917 28.8827 94.1991 28.8436C94.7065 28.8046 95.2529 28.7265 95.7603 28.6485C96.2677 28.5704 96.7751 28.4533 97.3216 28.3362C97.829 28.2191 98.4144 28.024 98.9999 27.8679L99.4682 27.7117V24.4722L98.4144 25.1357C98.1802 25.2918 97.868 25.448 97.4386 25.6041C97.0093 25.7602 96.5409 25.9163 96.0335 26.0334C95.5261 26.1505 94.9797 26.2676 94.4333 26.3457C93.8869 26.4237 93.3404 26.4628 92.794 26.4628C91.545 26.4628 90.4131 26.3457 89.4764 26.0725C88.5787 25.8383 87.7981 25.487 87.1736 25.0186C86.5881 24.5893 86.1197 24.0429 85.8075 23.4184C85.6123 23.0671 85.4952 22.6768 85.3782 22.2474L85.3001 21.9742H100.639V20.8814C100.639 19.6324 100.444 18.5005 100.054 17.4857C99.6634 16.4709 99.0389 15.5732 98.2973 14.8706C97.5167 14.1681 96.58 13.5826 95.4481 13.2314C94.3943 12.841 93.1453 12.6459 91.7792 12.6459ZM97.9851 19.3592H85.4172L85.4953 19.086C85.5733 18.8127 85.6904 18.5005 85.8465 18.2273C86.1588 17.6418 86.5491 17.1344 87.0565 16.6661C87.5639 16.1977 88.2274 15.8464 89.008 15.5732C89.7886 15.3 90.6863 15.1439 91.7402 15.1439C92.8721 15.1439 93.8088 15.3 94.5894 15.5732C95.37 15.8464 95.9945 16.1977 96.5019 16.6661C96.9703 17.0954 97.3606 17.6418 97.5948 18.1883C97.7119 18.4615 97.829 18.7737 97.868 19.086L97.9851 19.3592ZM86.0027 18.9298H97.3606C97.3216 18.7347 97.2435 18.5395 97.1654 18.3834C96.9313 17.876 96.619 17.4076 96.1897 17.0173C95.7603 16.627 95.1749 16.2757 94.4333 16.0416C93.6917 15.7683 92.794 15.6513 91.7011 15.6513C90.6863 15.6513 89.8277 15.7683 89.1251 16.0416C88.4226 16.2757 87.7981 16.627 87.3297 17.0564C86.8613 17.4857 86.471 17.9541 86.1978 18.4615C86.1588 18.6176 86.0807 18.7737 86.0027 18.9298Z" fill="#D9EE85"/>
<path d="M141.505 13.5828C140.763 13.1535 139.866 12.8022 138.851 12.6071C137.875 12.4119 136.821 12.3339 135.728 12.3339C134.44 12.3339 133.191 12.451 132.059 12.6461C130.928 12.8413 129.874 13.0754 128.859 13.3487L128.195 13.5438V17.0956L129.405 16.6272C129.874 16.4321 130.342 16.276 130.771 16.1198C131.201 15.9637 131.669 15.8466 132.137 15.7295C132.606 15.6124 133.113 15.5344 133.66 15.4563C134.596 15.3392 135.806 15.3392 136.977 15.4173C137.446 15.4563 137.914 15.5344 138.343 15.6124C138.773 15.6905 139.163 15.8466 139.514 15.9637C139.827 16.1198 140.1 16.276 140.334 16.4711C140.529 16.6663 140.685 16.8614 140.802 17.0956C140.919 17.3298 140.958 17.564 140.958 17.8762V18.1494C139.905 18.2275 138.89 18.3056 137.914 18.3836C136.665 18.5007 135.494 18.6568 134.44 18.852C133.347 19.0471 132.372 19.2813 131.474 19.5155C130.537 19.7887 129.757 20.14 129.093 20.5303C128.391 20.9597 127.805 21.5061 127.415 22.0915C126.985 22.716 126.79 23.4576 126.79 24.3163C126.79 25.1359 126.985 25.8385 127.337 26.463C127.688 27.0875 128.195 27.5949 128.82 28.0242C129.444 28.4145 130.147 28.6877 131.006 28.8829C131.825 29.078 132.723 29.1561 133.738 29.1561C134.479 29.1561 135.26 29.1171 136.041 29C136.821 28.9219 137.602 28.7658 138.343 28.6097C139.085 28.4535 139.788 28.2194 140.49 27.9852C140.646 27.9071 140.841 27.8681 140.997 27.79V28.8829H144.12V18.1494C144.12 17.0956 143.886 16.1589 143.417 15.4173C142.949 14.6367 142.285 14.0512 141.505 13.5828ZM129.952 24.1992C129.952 24.004 129.991 23.6918 130.381 23.3405C130.654 23.1063 131.201 22.716 132.333 22.3648C133.308 22.0525 134.596 21.7793 136.158 21.5451C137.524 21.35 139.163 21.1938 140.997 21.0767V24.5114C140.88 24.5895 140.763 24.6676 140.607 24.7066C140.295 24.8627 139.944 25.0188 139.553 25.175C139.163 25.3311 138.734 25.4482 138.265 25.5653C137.797 25.6824 137.329 25.7995 136.86 25.8775C136.392 25.9556 135.923 26.0336 135.455 26.0727C134.206 26.1898 133.074 26.1507 132.137 25.9946C131.591 25.8775 131.162 25.7214 130.771 25.5262C130.459 25.3701 130.225 25.1359 130.069 24.9018C129.991 24.7456 129.952 24.4724 129.952 24.1992Z" fill="#D9EE85"/>
<path d="M133.738 29.3511C132.723 29.3511 131.787 29.273 130.967 29.0778C130.108 28.8827 129.328 28.5704 128.703 28.1801C128.04 27.7508 127.493 27.2044 127.142 26.5409C126.752 25.8773 126.556 25.0967 126.556 24.2771C126.556 23.4184 126.791 22.6378 127.22 21.9352C127.649 21.3107 128.235 20.7643 128.976 20.2959C129.679 19.8666 130.498 19.5153 131.435 19.2421C132.333 18.9689 133.348 18.7347 134.441 18.5396C135.533 18.3444 136.704 18.1883 137.953 18.0712C138.851 17.9931 139.827 17.9151 140.803 17.837V17.798C140.803 17.5248 140.764 17.2906 140.646 17.0954C140.529 16.9003 140.412 16.7051 140.217 16.549C140.022 16.3538 139.749 16.1977 139.437 16.0806C139.085 15.9245 138.734 15.8074 138.305 15.7293C137.875 15.6513 137.446 15.5732 136.939 15.5342C135.846 15.4561 134.636 15.4561 133.66 15.5732C133.114 15.6513 132.606 15.7293 132.177 15.8464C131.708 15.9635 131.24 16.0806 130.811 16.2367C130.342 16.3929 129.913 16.549 129.445 16.7441L127.922 17.3296V13.3485L128.742 13.1143C129.757 12.8411 130.811 12.6069 131.943 12.4117C133.114 12.2166 134.363 12.0995 135.651 12.0995C136.782 12.0995 137.836 12.1775 138.812 12.3727C139.827 12.5679 140.764 12.9191 141.544 13.3485C142.364 13.8168 143.027 14.4804 143.535 15.261C144.042 16.0416 144.276 17.0174 144.276 18.1102V29.0388H140.725V28.0631C140.646 28.1021 140.568 28.1021 140.49 28.1411C139.827 28.3753 139.085 28.6095 138.344 28.7656C137.602 28.9608 136.821 29.0779 136.041 29.1949C135.299 29.312 134.519 29.3511 133.738 29.3511ZM135.455 15.0658C135.963 15.0658 136.509 15.1049 137.017 15.1439C137.524 15.1829 137.992 15.261 138.422 15.339C138.851 15.4171 139.241 15.5732 139.632 15.7293C139.983 15.8855 140.256 16.0416 140.529 16.2758C140.764 16.4709 140.92 16.7051 141.076 16.9393C141.193 17.1735 141.271 17.4857 141.271 17.837V18.3054H141.076C140.022 18.3834 139.007 18.4615 138.031 18.5396C136.821 18.6566 135.651 18.8128 134.558 18.9689C133.465 19.164 132.489 19.3592 131.63 19.6324C130.733 19.9056 129.952 20.2569 129.289 20.6472C128.586 21.0766 128.079 21.584 127.688 22.1304C127.298 22.7158 127.103 23.4184 127.103 24.199C127.103 24.9796 127.259 25.6431 127.61 26.2676C127.962 26.8531 128.43 27.3605 129.015 27.7508C129.601 28.1411 130.303 28.4143 131.123 28.6095C132.528 28.9217 134.284 28.9608 136.08 28.7266C136.861 28.6485 137.602 28.4924 138.344 28.3363C139.085 28.1801 139.788 27.946 140.451 27.7118C140.607 27.6337 140.803 27.5947 140.959 27.5166L141.271 27.3995V28.6095H143.925V18.1492C143.925 17.1344 143.691 16.2367 143.262 15.5342C142.832 14.8316 142.208 14.2462 141.427 13.7778C140.686 13.3485 139.827 13.0362 138.851 12.8411C137.914 12.6459 136.861 12.5679 135.768 12.5679C134.48 12.5679 133.27 12.6849 132.138 12.8801C131.006 13.0753 129.952 13.3094 128.976 13.5827L128.469 13.6997V16.7441L129.406 16.3929C129.874 16.1977 130.342 16.0416 130.772 15.8855C131.201 15.7293 131.669 15.6123 132.177 15.4952C132.645 15.3781 133.153 15.3 133.738 15.2219C134.206 15.1049 134.831 15.0658 135.455 15.0658ZM134.089 26.3847C133.387 26.3847 132.723 26.3457 132.138 26.2286C131.591 26.1115 131.084 25.9554 130.733 25.7602C130.381 25.5651 130.147 25.3309 129.952 25.0967C129.796 24.8625 129.718 24.5503 129.718 24.238C129.718 23.8477 129.874 23.5355 130.225 23.2232C130.498 22.95 131.084 22.5597 132.255 22.2084C133.231 21.8962 134.558 21.623 136.119 21.3888C137.485 21.1936 139.124 21.0375 140.998 20.9204H141.232V24.7064L141.115 24.7845C140.998 24.8625 140.842 24.9406 140.725 25.0187C140.412 25.1748 140.022 25.3309 139.632 25.487C139.241 25.6431 138.812 25.7602 138.344 25.8773C137.875 25.9944 137.407 26.1115 136.939 26.1896C136.47 26.2676 136.002 26.3457 135.533 26.3847C135.026 26.3457 134.558 26.3847 134.089 26.3847ZM140.764 21.3107C139.007 21.4278 137.446 21.584 136.158 21.7791C134.597 22.0133 133.309 22.2865 132.372 22.5988C131.279 22.95 130.772 23.3013 130.538 23.5355C130.225 23.8477 130.186 24.0819 130.186 24.238C130.186 24.4722 130.225 24.6674 130.342 24.8625C130.459 25.0577 130.694 25.2528 130.967 25.409C131.318 25.6041 131.747 25.7212 132.255 25.8383C133.192 26.0335 134.324 26.0335 135.494 25.9164C135.963 25.8773 136.431 25.7993 136.861 25.7212C137.329 25.6431 137.797 25.5261 138.227 25.409C138.656 25.2919 139.085 25.1357 139.476 25.0187C139.866 24.8625 140.217 24.7454 140.529 24.5893C140.607 24.5503 140.725 24.5113 140.803 24.4332V21.3107H140.764Z" fill="#D9EE85"/>
<path d="M185.688 27.8679C185.609 26.9312 185.414 26.0725 185.063 25.3309C184.751 24.5893 184.321 23.9258 183.853 23.3403C183.385 22.7549 182.838 22.2475 182.253 21.8182C181.667 21.3888 181.082 21.0375 180.457 20.7643C180.223 20.6472 179.989 20.5301 179.716 20.4521C179.794 20.413 179.911 20.374 179.989 20.296C180.535 19.9837 181.082 19.6324 181.589 19.2421C182.136 18.8128 182.604 18.3444 183.072 17.759C183.502 17.2125 183.892 16.588 184.165 15.8855C184.478 15.1829 184.673 14.4023 184.751 13.5436L184.829 12.5679H181.667L181.589 13.3875C181.511 13.973 181.394 14.5194 181.121 15.0268C180.887 15.5342 180.535 16.0416 180.145 16.4319C179.755 16.8612 179.287 17.2516 178.779 17.6028C178.233 17.9541 177.647 18.2664 177.062 18.5005C176.437 18.7347 175.774 18.9299 175.11 19.047C174.408 19.1641 173.705 19.2421 173.042 19.2421H172.066V12.5679H168.943V28.8437H172.066V22.2085H173.393C174.095 22.2085 174.798 22.2475 175.54 22.3646C176.242 22.4817 176.945 22.6378 177.608 22.8329C178.272 23.0281 178.896 23.3013 179.482 23.6526C180.028 23.9648 180.535 24.3551 181.004 24.7845C181.433 25.2138 181.784 25.6822 182.058 26.2286C182.331 26.7751 182.487 27.3605 182.565 28.024L182.643 28.8437H185.805L185.688 27.8679Z" fill="#D9EE85"/>
<path d="M186 29.0779H182.409L182.331 28.0632C182.292 27.4387 182.136 26.8532 181.863 26.3458C181.589 25.8384 181.277 25.37 180.848 24.9407C180.418 24.5114 179.95 24.1601 179.404 23.8478C178.818 23.5356 178.233 23.2624 177.569 23.0672C176.906 22.8721 176.242 22.7159 175.54 22.5989C174.837 22.4818 174.135 22.4427 173.432 22.4427H172.3V29.0779H168.748V12.3728H172.3V19.0471H173.081C173.744 19.0471 174.447 18.969 175.11 18.8519C175.774 18.7348 176.437 18.5397 177.023 18.3055C177.608 18.0713 178.194 17.7981 178.701 17.4468C179.209 17.1346 179.638 16.7442 180.028 16.3149C180.418 15.8856 180.731 15.4562 180.965 14.9488C181.199 14.4805 181.355 13.934 181.394 13.3876L181.511 12.3728H185.102L184.985 13.5828C184.907 14.4805 184.712 15.2611 184.4 16.0027C184.087 16.7052 183.697 17.3687 183.268 17.9152C182.799 18.5006 182.292 19.008 181.746 19.4374C181.277 19.8277 180.77 20.1399 180.262 20.4131C180.379 20.4522 180.458 20.4912 180.575 20.5693C181.199 20.8425 181.824 21.2328 182.409 21.6621C183.034 22.0915 183.58 22.6379 184.048 23.2233C184.556 23.8088 184.946 24.5114 185.297 25.2529C185.649 26.0336 185.844 26.8922 185.922 27.868L186 29.0779ZM182.799 28.6096H185.492L185.414 27.868C185.336 26.9703 185.141 26.1116 184.829 25.4091C184.517 24.7065 184.126 24.043 183.658 23.4575C183.19 22.9111 182.682 22.4037 182.097 21.9744C181.55 21.5841 180.926 21.2328 180.34 20.9596C180.106 20.8425 179.872 20.7644 179.638 20.6473L179.169 20.4522L179.599 20.218C179.677 20.1789 179.794 20.1399 179.872 20.0619C180.418 19.7886 180.926 19.4374 181.433 19.0471C181.941 18.6567 182.448 18.1493 182.877 17.6029C183.307 17.0565 183.658 16.432 183.97 15.7685C184.283 15.0659 184.478 14.3243 184.517 13.4657L184.595 12.7241H181.902L181.824 13.3486C181.746 13.9731 181.589 14.5195 181.355 15.0659C181.082 15.6124 180.77 16.0807 180.34 16.5491C179.911 17.0175 179.443 17.4078 178.935 17.759C178.389 18.1103 177.803 18.4226 177.179 18.6567C176.554 18.8909 175.852 19.0861 175.149 19.2032C174.447 19.3203 173.744 19.3983 173.042 19.3983H171.832V12.8021H169.178V28.6096H171.832V21.9744H173.393C174.095 21.9744 174.837 22.0134 175.579 22.1305C176.281 22.2476 177.023 22.4037 177.686 22.5989C178.35 22.833 179.013 23.1062 179.599 23.4185C180.184 23.7307 180.692 24.121 181.16 24.5894C181.589 25.0188 181.98 25.5262 182.253 26.1116C182.526 26.658 182.682 27.2825 182.76 27.9851L182.799 28.6096Z" fill="#D9EE85"/>
<path d="M161.918 19.1641H151.028V12.5679H147.945V28.8437H151.028V22.2475H161.918V28.8437H165.001V12.5679H161.918V19.1641Z" fill="#D9EE85"/>
<path d="M165.236 29.0779H161.723V22.4818H151.263V29.0779H147.75V12.3728H151.263V18.969H161.723V12.3728H165.236V29.0779ZM162.152 28.6096H164.806V12.8021H162.152V19.3983H150.794V12.8021H148.14V28.6096H150.794V22.0524H162.152V28.6096Z" fill="#D9EE85"/>
<path d="M81.1627 12.9195C81.1627 8.97737 77.9622 5.77686 74.0201 5.77686H60.3594V28.805H63.4428V20.6085H74.0201C77.9622 20.6085 81.1627 17.408 81.1627 13.4659V12.9195ZM63.4428 8.89931H74.0201C76.2449 8.89931 78.0793 10.7338 78.0793 12.9585V13.4659C78.0793 15.6907 76.2449 17.5251 74.0201 17.5251H63.4428V8.89931Z" fill="#D9EE85"/>
<path d="M63.6773 29.0778H60.1646V5.5813H74.0595C78.1187 5.5813 81.3973 8.89891 81.3973 12.9191V13.4655C81.3973 17.5247 78.0796 20.8033 74.0595 20.8033H63.6773V29.0778ZM60.5939 28.6094H63.248V20.3739H74.0595C77.8845 20.3739 80.9679 17.2905 80.9679 13.4655V12.9581C80.9679 9.13309 77.8845 6.04967 74.0595 6.04967H60.5939V28.6094ZM74.0205 17.7199H63.2089V8.66473H74.0205C76.3623 8.66473 78.2748 10.5772 78.2748 12.9191V13.4655C78.3138 15.8073 76.4013 17.7199 74.0205 17.7199ZM63.6773 17.2905H74.0205C76.1281 17.2905 77.8455 15.5732 77.8455 13.4655V12.9581C77.8455 10.8504 76.1281 9.13309 74.0205 9.13309H63.6773V17.2905Z" fill="#D9EE85"/>
<path d="M117.735 14.051H107.157V8.2354H123.082V5.15198H104.113V27.9459V28.8436H117.774C121.716 28.8436 124.916 25.6431 124.916 21.701V21.1936C124.877 17.2515 121.677 14.051 117.735 14.051ZM117.735 25.7602H107.157V17.1344H117.735C119.96 17.1344 121.794 18.9689 121.794 21.1936V21.701C121.794 23.9648 119.999 25.7602 117.735 25.7602Z" fill="#D9EE85"/>
<path d="M117.735 29.078H103.84V27.9461V4.91797H123.277V8.43073H107.392V13.856H117.774C121.833 13.856 125.112 17.1736 125.112 21.1938V21.7012C125.112 25.7604 121.794 29.078 117.735 29.078ZM104.308 28.6096H117.735C121.56 28.6096 124.643 25.5262 124.643 21.7012V21.1938C124.643 17.3688 121.56 14.2853 117.735 14.2853H106.923V8.04043H122.809V5.38634H104.269L104.308 28.6096ZM117.735 25.9946H106.923V16.9394H117.735C120.077 16.9394 121.989 18.8519 121.989 21.1938V21.7012C122.028 24.0821 120.116 25.9946 117.735 25.9946ZM107.392 25.5652H117.735C119.842 25.5652 121.56 23.8479 121.56 21.7402V21.2328C121.56 19.1252 119.842 17.4078 117.735 17.4078H107.392V25.5652Z" fill="#D9EE85"/>
</svg>
