<svg width="16" height="15" viewBox="0 0 16 15" fill="none" xmlns="http://www.w3.org/2000/svg">
<path d="M8.47846 0.281723L10.5461 4.39353C10.623 4.54489 10.7682 4.6542 10.9391 4.67102L15.5529 5.32689C15.9801 5.38575 16.1509 5.90708 15.8433 6.20139L12.4941 9.42189C12.3745 9.53961 12.3147 9.70778 12.3403 9.87595L13.1264 14.3998C13.2033 14.8202 12.7504 15.1397 12.366 14.9379L8.23923 12.8021C8.08544 12.7265 7.90602 12.7265 7.75222 12.8021L3.6255 14.9379C3.24102 15.1397 2.79673 14.8118 2.86508 14.3998L3.65113 9.87595C3.67676 9.70778 3.6255 9.53961 3.49734 9.42189L0.156651 6.2182C-0.150931 5.9239 0.0199481 5.40257 0.447146 5.34371L5.06088 4.68784C5.23176 4.66261 5.37701 4.56171 5.4539 4.41035L7.52154 0.29854C7.73514 -0.0966647 8.28195 -0.0966648 8.47846 0.281723Z" fill="#222226"/>
</svg>
